<?xml version="1.0" encoding="UTF-8" standalone="no"?>
<!DOCTYPE svg PUBLIC "-//W3C//DTD SVG 1.1//EN"
 "http://www.w3.org/Graphics/SVG/1.1/DTD/svg11.dtd">
<!-- Generated by graphviz version 2.40.1 (20161225.0304)
 -->
<!-- Title: %0 Pages: 1 -->
<svg width="525pt" height="113pt"
 viewBox="0.00 0.00 525.00 113.00" xmlns="http://www.w3.org/2000/svg" xmlns:xlink="http://www.w3.org/1999/xlink">
<g id="graph0" class="graph" transform="scale(1 1) rotate(0) translate(4 109)">
<title>%0</title>
<polygon fill="#ffffff" stroke="transparent" points="-4,4 -4,-109 521,-109 521,4 -4,4"/>
<!-- 1&#45;&gt;2 -->
<g id="edge1" class="edge">
<title>1&#45;&gt;2</title>
<g id="a_edge1"><a xlink:title=" ">
<path fill="none" stroke="#c0c0c0" d="M43.0871,-10C52.5795,-10 63.8229,-10 73.8327,-10"/>
<polygon fill="#c0c0c0" stroke="#c0c0c0" points="73.939,-11.7501 78.939,-10 73.939,-8.2501 73.939,-11.7501"/>
</a>
</g>
</g>
<!-- 2&#45;&gt;3 -->
<g id="edge2" class="edge">
<title>2&#45;&gt;3</title>
<g id="a_edge2"><a xlink:title=" ">
<path fill="none" stroke="#c0c0c0" d="M122.0871,-10C131.5795,-10 142.8229,-10 152.8327,-10"/>
<polygon fill="#c0c0c0" stroke="#c0c0c0" points="152.939,-11.7501 157.939,-10 152.939,-8.2501 152.939,-11.7501"/>
</a>
</g>
</g>
<!-- 3&#45;&gt;4 -->
<g id="edge3" class="edge">
<title>3&#45;&gt;4</title>
<g id="a_edge3"><a xlink:title=" ">
<path fill="none" stroke="#c0c0c0" d="M201.0871,-10C210.5795,-10 221.8229,-10 231.8327,-10"/>
<polygon fill="#c0c0c0" stroke="#c0c0c0" points="231.939,-11.7501 236.939,-10 231.939,-8.2501 231.939,-11.7501"/>
</a>
</g>
</g>
<!-- 4&#45;&gt;5 -->
<g id="edge4" class="edge">
<title>4&#45;&gt;5</title>
<g id="a_edge4"><a xlink:title=" ">
<path fill="none" stroke="#c0c0c0" d="M280.0871,-10C289.5795,-10 300.8229,-10 310.8327,-10"/>
<polygon fill="#c0c0c0" stroke="#c0c0c0" points="310.939,-11.7501 315.939,-10 310.939,-8.2501 310.939,-11.7501"/>
</a>
</g>
</g>
<!-- 5&#45;&gt;6 -->
<g id="edge5" class="edge">
<title>5&#45;&gt;6</title>
<g id="a_edge5"><a xlink:title=" ">
<path fill="none" stroke="#c0c0c0" d="M359.0871,-10C368.5795,-10 379.8229,-10 389.8327,-10"/>
<polygon fill="#c0c0c0" stroke="#c0c0c0" points="389.939,-11.7501 394.939,-10 389.939,-8.2501 389.939,-11.7501"/>
</a>
</g>
</g>
<!-- 6&#45;&gt;7 -->
<g id="edge6" class="edge">
<title>6&#45;&gt;7</title>
<g id="a_edge6"><a xlink:title=" ">
<path fill="none" stroke="#c0c0c0" d="M438.0871,-10C447.5795,-10 458.8229,-10 468.8327,-10"/>
<polygon fill="#c0c0c0" stroke="#c0c0c0" points="468.939,-11.7501 473.939,-10 468.939,-8.2501 468.939,-11.7501"/>
</a>
</g>
</g>
<!-- 8&#45;&gt;9 -->
<g id="edge7" class="edge">
<title>8&#45;&gt;9</title>
<g id="a_edge7"><a xlink:title=" ">
<path fill="none" stroke="#5cd89f" d="M43.0871,-67C52.5795,-67 63.8229,-67 73.8327,-67"/>
<polygon fill="#5cd89f" stroke="#5cd89f" points="73.939,-68.7501 78.939,-67 73.939,-65.2501 73.939,-68.7501"/>
</a>
</g>
</g>
<!-- 9&#45;&gt;10 -->
<g id="edge9" class="edge">
<title>9&#45;&gt;10</title>
<g id="a_edge9"><a xlink:title=" ">
<path fill="none" stroke="#c0c0c0" d="M122.0871,-74.6511C131.6666,-78.0464 143.0293,-82.0737 153.1079,-85.6458"/>
<polygon fill="#c0c0c0" stroke="#c0c0c0" points="152.6416,-87.3372 157.939,-87.3581 153.8109,-84.0383 152.6416,-87.3372"/>
</a>
</g>
</g>
<!-- 9&#45;&gt;14 -->
<g id="edge8" class="edge">
<title>9&#45;&gt;14</title>
<g id="a_edge8"><a xlink:title=" ">
<path fill="none" stroke="#ffd36e" d="M122.0871,-64.2675C131.5795,-63.0659 142.8229,-61.6427 152.8327,-60.3756"/>
<polygon fill="#ffd36e" stroke="#ffd36e" points="153.1984,-62.0934 157.939,-59.7292 152.7588,-58.6211 153.1984,-62.0934"/>
</a>
</g>
</g>
<!-- 11&#45;&gt;12 -->
<g id="edge10" class="edge">
<title>11&#45;&gt;12</title>
<g id="a_edge10"><a xlink:title=" ">
<path fill="none" stroke="#5cd89f" d="M359.0871,-90C368.5795,-90 379.8229,-90 389.8327,-90"/>
<polygon fill="#5cd89f" stroke="#5cd89f" points="389.939,-91.7501 394.939,-90 389.939,-88.2501 389.939,-91.7501"/>
</a>
</g>
</g>
<!-- 12&#45;&gt;13 -->
<g id="edge11" class="edge">
<title>12&#45;&gt;13</title>
<g id="a_edge11"><a xlink:title=" ">
<path fill="none" stroke="#5cd89f" d="M438.0871,-90C447.5795,-90 458.8229,-90 468.8327,-90"/>
<polygon fill="#5cd89f" stroke="#5cd89f" points="468.939,-91.7501 473.939,-90 468.939,-88.2501 468.939,-91.7501"/>
</a>
</g>
</g>
<!-- 14&#45;&gt;15 -->
<g id="edge12" class="edge">
<title>14&#45;&gt;15</title>
<g id="a_edge12"><a xlink:title=" ">
<path fill="none" stroke="#5cd89f" d="M201.0871,-57C210.5795,-57 221.8229,-57 231.8327,-57"/>
<polygon fill="#5cd89f" stroke="#5cd89f" points="231.939,-58.7501 236.939,-57 231.939,-55.2501 231.939,-58.7501"/>
</a>
</g>
</g>
<!-- 15&#45;&gt;11 -->
<g id="edge13" class="edge">
<title>15&#45;&gt;11</title>
<g id="a_edge13"><a xlink:title=" ">
<path fill="none" stroke="#ffd36e" d="M280.0871,-66.0174C289.6666,-70.0189 301.0293,-74.7654 311.1079,-78.9755"/>
<polygon fill="#ffd36e" stroke="#ffd36e" points="310.6508,-80.681 315.939,-80.9935 311.9999,-77.4514 310.6508,-80.681"/>
</a>
</g>
</g>
<!-- 15&#45;&gt;16 -->
<g id="edge14" class="edge">
<title>15&#45;&gt;16</title>
<g id="a_edge14"><a xlink:title=" ">
<path fill="none" stroke="#c0c0c0" d="M280.0871,-55.6337C289.5795,-55.0329 300.8229,-54.3213 310.8327,-53.6878"/>
<polygon fill="#c0c0c0" stroke="#c0c0c0" points="311.0596,-55.427 315.939,-53.3646 310.8384,-51.934 311.0596,-55.427"/>
</a>
</g>
</g>
<!-- 1 -->
<g id="node1" class="node">
<title>1</title>
<path fill="#ffffff" stroke="#ffffff" stroke-width="2" d="M36.3333,-20C36.3333,-20 6.6667,-20 6.6667,-20 3.3333,-20 0,-16.6667 0,-13.3333 0,-13.3333 0,-6.6667 0,-6.6667 0,-3.3333 3.3333,0 6.6667,0 6.6667,0 36.3333,0 36.3333,0 39.6667,0 43,-3.3333 43,-6.6667 43,-6.6667 43,-13.3333 43,-13.3333 43,-16.6667 39.6667,-20 36.3333,-20"/>
<text text-anchor="middle" x="21.5" y="-7" font-family="Helvetica,sans-Serif" font-size="10.00" fill="#333333">HS 1992</text>
</g>
<!-- 2 -->
<g id="node2" class="node">
<title>2</title>
<path fill="#ffffff" stroke="#ffffff" stroke-width="2" d="M115.3333,-20C115.3333,-20 85.6667,-20 85.6667,-20 82.3333,-20 79,-16.6667 79,-13.3333 79,-13.3333 79,-6.6667 79,-6.6667 79,-3.3333 82.3333,0 85.6667,0 85.6667,0 115.3333,0 115.3333,0 118.6667,0 122,-3.3333 122,-6.6667 122,-6.6667 122,-13.3333 122,-13.3333 122,-16.6667 118.6667,-20 115.3333,-20"/>
<text text-anchor="middle" x="100.5" y="-7" font-family="Helvetica,sans-Serif" font-size="10.00" fill="#333333">HS 1996</text>
</g>
<!-- 3 -->
<g id="node3" class="node">
<title>3</title>
<path fill="#ffffff" stroke="#ffffff" stroke-width="2" d="M194.3333,-20C194.3333,-20 164.6667,-20 164.6667,-20 161.3333,-20 158,-16.6667 158,-13.3333 158,-13.3333 158,-6.6667 158,-6.6667 158,-3.3333 161.3333,0 164.6667,0 164.6667,0 194.3333,0 194.3333,0 197.6667,0 201,-3.3333 201,-6.6667 201,-6.6667 201,-13.3333 201,-13.3333 201,-16.6667 197.6667,-20 194.3333,-20"/>
<text text-anchor="middle" x="179.5" y="-7" font-family="Helvetica,sans-Serif" font-size="10.00" fill="#333333">HS 2002</text>
</g>
<!-- 4 -->
<g id="node4" class="node">
<title>4</title>
<path fill="#ffffff" stroke="#ffffff" stroke-width="2" d="M273.3333,-20C273.3333,-20 243.6667,-20 243.6667,-20 240.3333,-20 237,-16.6667 237,-13.3333 237,-13.3333 237,-6.6667 237,-6.6667 237,-3.3333 240.3333,0 243.6667,0 243.6667,0 273.3333,0 273.3333,0 276.6667,0 280,-3.3333 280,-6.6667 280,-6.6667 280,-13.3333 280,-13.3333 280,-16.6667 276.6667,-20 273.3333,-20"/>
<text text-anchor="middle" x="258.5" y="-7" font-family="Helvetica,sans-Serif" font-size="10.00" fill="#333333">HS 2007</text>
</g>
<!-- 5 -->
<g id="node5" class="node">
<title>5</title>
<path fill="#ffffff" stroke="#ffffff" stroke-width="2" d="M352.3333,-20C352.3333,-20 322.6667,-20 322.6667,-20 319.3333,-20 316,-16.6667 316,-13.3333 316,-13.3333 316,-6.6667 316,-6.6667 316,-3.3333 319.3333,0 322.6667,0 322.6667,0 352.3333,0 352.3333,0 355.6667,0 359,-3.3333 359,-6.6667 359,-6.6667 359,-13.3333 359,-13.3333 359,-16.6667 355.6667,-20 352.3333,-20"/>
<text text-anchor="middle" x="337.5" y="-7" font-family="Helvetica,sans-Serif" font-size="10.00" fill="#333333">HS 2012</text>
</g>
<!-- 6 -->
<g id="node6" class="node">
<title>6</title>
<path fill="#ffffff" stroke="#ffffff" stroke-width="2" d="M431.3333,-20C431.3333,-20 401.6667,-20 401.6667,-20 398.3333,-20 395,-16.6667 395,-13.3333 395,-13.3333 395,-6.6667 395,-6.6667 395,-3.3333 398.3333,0 401.6667,0 401.6667,0 431.3333,0 431.3333,0 434.6667,0 438,-3.3333 438,-6.6667 438,-6.6667 438,-13.3333 438,-13.3333 438,-16.6667 434.6667,-20 431.3333,-20"/>
<text text-anchor="middle" x="416.5" y="-7" font-family="Helvetica,sans-Serif" font-size="10.00" fill="#333333">HS 2017</text>
</g>
<!-- 7 -->
<g id="node7" class="node">
<title>7</title>
<path fill="#ffffff" stroke="#ffffff" stroke-width="2" d="M510.3333,-20C510.3333,-20 480.6667,-20 480.6667,-20 477.3333,-20 474,-16.6667 474,-13.3333 474,-13.3333 474,-6.6667 474,-6.6667 474,-3.3333 477.3333,0 480.6667,0 480.6667,0 510.3333,0 510.3333,0 513.6667,0 517,-3.3333 517,-6.6667 517,-6.6667 517,-13.3333 517,-13.3333 517,-16.6667 513.6667,-20 510.3333,-20"/>
<text text-anchor="middle" x="495.5" y="-7" font-family="Helvetica,sans-Serif" font-size="10.00" fill="#333333">HS 2022</text>
</g>
<!-- 8 -->
<g id="node8" class="node">
<title>8</title>
<g id="a_node8"><a xlink:title="Other live animals">
<path fill="#ffffff" stroke="#5cd89f" stroke-width="2" d="M36.3333,-77C36.3333,-77 6.6667,-77 6.6667,-77 3.3333,-77 0,-73.6667 0,-70.3333 0,-70.3333 0,-63.6667 0,-63.6667 0,-60.3333 3.3333,-57 6.6667,-57 6.6667,-57 36.3333,-57 36.3333,-57 39.6667,-57 43,-60.3333 43,-63.6667 43,-63.6667 43,-70.3333 43,-70.3333 43,-73.6667 39.6667,-77 36.3333,-77"/>
<text text-anchor="middle" x="21.5" y="-64" font-family="Helvetica,sans-Serif" font-size="10.00" fill="#333333">010600</text>
</a>
</g>
</g>
<!-- 9 -->
<g id="node9" class="node">
<title>9</title>
<g id="a_node9"><a xlink:title="Live animals (excl. horses, asses, mules, hinnies, bovine animals, swine, sheep, goats, poultry, fish, crustaceans, molluscs and other aquatic invertebrates, and microorganic cultures etc.)&lt;br/&gt;&lt;br/&gt;&lt;span style=color:#5CD89F&gt;Unchanged&lt;/span&gt;">
<path fill="#ffffff" stroke="#5cd89f" stroke-width="2" d="M115.3333,-77C115.3333,-77 85.6667,-77 85.6667,-77 82.3333,-77 79,-73.6667 79,-70.3333 79,-70.3333 79,-63.6667 79,-63.6667 79,-60.3333 82.3333,-57 85.6667,-57 85.6667,-57 115.3333,-57 115.3333,-57 118.6667,-57 122,-60.3333 122,-63.6667 122,-63.6667 122,-70.3333 122,-70.3333 122,-73.6667 118.6667,-77 115.3333,-77"/>
<text text-anchor="middle" x="100.5" y="-64" font-family="Helvetica,sans-Serif" font-size="10.00" fill="#333333">010600</text>
</a>
</g>
</g>
<!-- 10 -->
<g id="node10" class="node">
<title>10</title>
<g id="a_node10"><a xlink:title="Destination code: 010611, 010612, 010619, 010620, 010631, 010632, 010639">
<path fill="#ffffff" stroke="#c0c0c0" stroke-width="2" d="M194.3333,-105C194.3333,-105 164.6667,-105 164.6667,-105 161.3333,-105 158,-101.6667 158,-98.3333 158,-98.3333 158,-91.6667 158,-91.6667 158,-88.3333 161.3333,-85 164.6667,-85 164.6667,-85 194.3333,-85 194.3333,-85 197.6667,-85 201,-88.3333 201,-91.6667 201,-91.6667 201,-98.3333 201,-98.3333 201,-101.6667 197.6667,-105 194.3333,-105"/>
<text text-anchor="middle" x="179.5" y="-92" font-family="Helvetica,sans-Serif" font-size="10.00" fill="#c0c0c0">Nb: 7</text>
</a>
</g>
</g>
<!-- 11 -->
<g id="node11" class="node">
<title>11</title>
<g id="a_node11"><a xlink:title="Live bees&lt;br/&gt;&lt;br/&gt;&lt;span style=color:#FFD36E&gt;New: &lt;/span&gt;Expansion of the scope of subheading 0106.12 to include seals, sea lions and walruses.At the same time, creation of new subheadings for certain animals. Amendment adopted as a result of the FAO proposal to enhance the monitoring of the global food security&lt;br/&gt;&lt;br/&gt;WCO Trade tools:&lt;a href=https://www.wcotradetools.org/en/harmonized&#45;system/2012/en/01010641 target=_blank&gt; 010641&lt;/a&gt;">
<path fill="#333333" stroke="#ffd36e" stroke-width="2" d="M352.3333,-100C352.3333,-100 322.6667,-100 322.6667,-100 319.3333,-100 316,-96.6667 316,-93.3333 316,-93.3333 316,-86.6667 316,-86.6667 316,-83.3333 319.3333,-80 322.6667,-80 322.6667,-80 352.3333,-80 352.3333,-80 355.6667,-80 359,-83.3333 359,-86.6667 359,-86.6667 359,-93.3333 359,-93.3333 359,-96.6667 355.6667,-100 352.3333,-100"/>
<text text-anchor="middle" x="337.5" y="-87" font-family="Helvetica,sans-Serif" font-size="10.00" fill="#ffffff">010641</text>
</a>
</g>
</g>
<!-- 12 -->
<g id="node12" class="node">
<title>12</title>
<g id="a_node12"><a xlink:title="Live bees&lt;br/&gt;&lt;br/&gt;&lt;span style=color:#5CD89F&gt;Unchanged&lt;/span&gt;&lt;br/&gt;&lt;br/&gt;WCO Trade tools:&lt;a href=https://www.wcotradetools.org/en/harmonized&#45;system/2017/en/01010641 target=_blank&gt; 010641&lt;/a&gt;">
<path fill="#333333" stroke="#5cd89f" stroke-width="2" d="M431.3333,-100C431.3333,-100 401.6667,-100 401.6667,-100 398.3333,-100 395,-96.6667 395,-93.3333 395,-93.3333 395,-86.6667 395,-86.6667 395,-83.3333 398.3333,-80 401.6667,-80 401.6667,-80 431.3333,-80 431.3333,-80 434.6667,-80 438,-83.3333 438,-86.6667 438,-86.6667 438,-93.3333 438,-93.3333 438,-96.6667 434.6667,-100 431.3333,-100"/>
<text text-anchor="middle" x="416.5" y="-87" font-family="Helvetica,sans-Serif" font-size="10.00" fill="#ffffff">010641</text>
</a>
</g>
</g>
<!-- 13 -->
<g id="node13" class="node">
<title>13</title>
<g id="a_node13"><a xlink:title="&#45; &#45; Bees&lt;br/&gt;&lt;br/&gt;&lt;span style=color:#5CD89F&gt;Unchanged&lt;/span&gt;&lt;br/&gt;&lt;br/&gt;WCO Trade tools:&lt;a href=https://www.wcotradetools.org/en/harmonized&#45;system/2022/en/01010641 target=_blank&gt; 010641&lt;/a&gt;">
<path fill="#333333" stroke="#5cd89f" stroke-width="2" d="M510.3333,-100C510.3333,-100 480.6667,-100 480.6667,-100 477.3333,-100 474,-96.6667 474,-93.3333 474,-93.3333 474,-86.6667 474,-86.6667 474,-83.3333 477.3333,-80 480.6667,-80 480.6667,-80 510.3333,-80 510.3333,-80 513.6667,-80 517,-83.3333 517,-86.6667 517,-86.6667 517,-93.3333 517,-93.3333 517,-96.6667 513.6667,-100 510.3333,-100"/>
<text text-anchor="middle" x="495.5" y="-87" font-family="Helvetica,sans-Serif" font-size="10.00" fill="#ffffff">010641</text>
</a>
</g>
</g>
<!-- 14 -->
<g id="node14" class="node">
<title>14</title>
<g id="a_node14"><a xlink:title="Live animals (excl. mammals, reptiles, birds, fish, crustaceans, molluscs and other aquatic invertebrates and cultures of micro&#45;organisms, etc.)&lt;br/&gt;&lt;br/&gt;&lt;span style=color:#FFD36E&gt;New: &lt;/span&gt;Creation of new subheadings 0106.1 to 0106.90, facilitating the monitoring and control of certain live animals under the Convention on International Trade in Endangered Species of Fauna and Flora (CITES).&lt;br/&gt;&lt;br/&gt;WCO Trade tools:&lt;a href=https://www.wcotradetools.org/en/harmonized&#45;system/2002/en/01010690 target=_blank&gt; 010690&lt;/a&gt;">
<path fill="#ffffff" stroke="#ffd36e" stroke-width="2" d="M194.3333,-67C194.3333,-67 164.6667,-67 164.6667,-67 161.3333,-67 158,-63.6667 158,-60.3333 158,-60.3333 158,-53.6667 158,-53.6667 158,-50.3333 161.3333,-47 164.6667,-47 164.6667,-47 194.3333,-47 194.3333,-47 197.6667,-47 201,-50.3333 201,-53.6667 201,-53.6667 201,-60.3333 201,-60.3333 201,-63.6667 197.6667,-67 194.3333,-67"/>
<text text-anchor="middle" x="179.5" y="-54" font-family="Helvetica,sans-Serif" font-size="10.00" fill="#333333">010690</text>
</a>
</g>
</g>
<!-- 15 -->
<g id="node15" class="node">
<title>15</title>
<g id="a_node15"><a xlink:title="Live animals (excl. mammals, reptiles, birds, fish, crustaceans, molluscs and other aquatic invertebrates and cultures of micro&#45;organisms, etc.)&lt;br/&gt;&lt;br/&gt;&lt;span style=color:#5CD89F&gt;Unchanged&lt;/span&gt;&lt;br/&gt;&lt;br/&gt;WCO Trade tools:&lt;a href=https://www.wcotradetools.org/en/harmonized&#45;system/2007/en/01010690 target=_blank&gt; 010690&lt;/a&gt;">
<path fill="#ffffff" stroke="#5cd89f" stroke-width="2" d="M273.3333,-67C273.3333,-67 243.6667,-67 243.6667,-67 240.3333,-67 237,-63.6667 237,-60.3333 237,-60.3333 237,-53.6667 237,-53.6667 237,-50.3333 240.3333,-47 243.6667,-47 243.6667,-47 273.3333,-47 273.3333,-47 276.6667,-47 280,-50.3333 280,-53.6667 280,-53.6667 280,-60.3333 280,-60.3333 280,-63.6667 276.6667,-67 273.3333,-67"/>
<text text-anchor="middle" x="258.5" y="-54" font-family="Helvetica,sans-Serif" font-size="10.00" fill="#333333">010690</text>
</a>
</g>
</g>
<!-- 16 -->
<g id="node16" class="node">
<title>16</title>
<g id="a_node16"><a xlink:title="Destination code: 010649, 010690">
<path fill="#ffffff" stroke="#c0c0c0" stroke-width="2" d="M352.3333,-62C352.3333,-62 322.6667,-62 322.6667,-62 319.3333,-62 316,-58.6667 316,-55.3333 316,-55.3333 316,-48.6667 316,-48.6667 316,-45.3333 319.3333,-42 322.6667,-42 322.6667,-42 352.3333,-42 352.3333,-42 355.6667,-42 359,-45.3333 359,-48.6667 359,-48.6667 359,-55.3333 359,-55.3333 359,-58.6667 355.6667,-62 352.3333,-62"/>
<text text-anchor="middle" x="337.5" y="-49" font-family="Helvetica,sans-Serif" font-size="10.00" fill="#c0c0c0">Nb: 2</text>
</a>
</g>
</g>
</g>
</svg>

